<mxfile host="app.diagrams.net" modified="2024-01-29T02:58:01.662Z" agent="Mozilla/5.0 (Windows NT 10.0; Win64; x64) AppleWebKit/537.36 (KHTML, like Gecko) Chrome/120.0.0.0 Safari/537.36 Edg/120.0.0.0" etag="i5hxzHrVN_21JnE8wu_8" version="23.0.2" type="github">
  <diagram name="페이지-1" id="gA-vUbLAnnkiTcSz0OoJ">
    <mxGraphModel dx="2476" dy="1775" grid="1" gridSize="10" guides="1" tooltips="1" connect="1" arrows="1" fold="1" page="1" pageScale="1" pageWidth="827" pageHeight="1169" math="0" shadow="0">
      <root>
        <mxCell id="0" />
        <mxCell id="1" parent="0" />
        <mxCell id="8RJg4G3EmbTGDTWV4F5U-1" value="회원" style="whiteSpace=wrap;html=1;align=center;" vertex="1" parent="1">
          <mxGeometry x="-750" y="30" width="100" height="40" as="geometry" />
        </mxCell>
        <mxCell id="8RJg4G3EmbTGDTWV4F5U-2" value="상품" style="whiteSpace=wrap;html=1;align=center;" vertex="1" parent="1">
          <mxGeometry x="-380" y="30" width="100" height="40" as="geometry" />
        </mxCell>
        <mxCell id="8RJg4G3EmbTGDTWV4F5U-5" value="아이디" style="ellipse;whiteSpace=wrap;html=1;align=center;fontStyle=4;" vertex="1" parent="1">
          <mxGeometry x="-880" y="-90" width="100" height="40" as="geometry" />
        </mxCell>
        <mxCell id="8RJg4G3EmbTGDTWV4F5U-6" value="비밀번호" style="ellipse;whiteSpace=wrap;html=1;align=center;" vertex="1" parent="1">
          <mxGeometry x="-880" y="-50" width="100" height="40" as="geometry" />
        </mxCell>
        <mxCell id="8RJg4G3EmbTGDTWV4F5U-7" value="이름" style="ellipse;whiteSpace=wrap;html=1;align=center;" vertex="1" parent="1">
          <mxGeometry x="-880" y="-10" width="100" height="40" as="geometry" />
        </mxCell>
        <mxCell id="8RJg4G3EmbTGDTWV4F5U-8" value="나이" style="ellipse;whiteSpace=wrap;html=1;align=center;" vertex="1" parent="1">
          <mxGeometry x="-880" y="30" width="100" height="40" as="geometry" />
        </mxCell>
        <mxCell id="8RJg4G3EmbTGDTWV4F5U-9" value="직업" style="ellipse;whiteSpace=wrap;html=1;align=center;" vertex="1" parent="1">
          <mxGeometry x="-880" y="70" width="100" height="40" as="geometry" />
        </mxCell>
        <mxCell id="8RJg4G3EmbTGDTWV4F5U-10" value="등급" style="ellipse;whiteSpace=wrap;html=1;align=center;" vertex="1" parent="1">
          <mxGeometry x="-880" y="110" width="100" height="40" as="geometry" />
        </mxCell>
        <mxCell id="8RJg4G3EmbTGDTWV4F5U-11" value="적립금" style="ellipse;whiteSpace=wrap;html=1;align=center;" vertex="1" parent="1">
          <mxGeometry x="-880" y="150" width="100" height="40" as="geometry" />
        </mxCell>
        <mxCell id="8RJg4G3EmbTGDTWV4F5U-14" value="상품번호" style="ellipse;whiteSpace=wrap;html=1;align=center;fontStyle=4;" vertex="1" parent="1">
          <mxGeometry x="-260" y="-20" width="100" height="40" as="geometry" />
        </mxCell>
        <mxCell id="8RJg4G3EmbTGDTWV4F5U-15" value="상품명" style="ellipse;whiteSpace=wrap;html=1;align=center;" vertex="1" parent="1">
          <mxGeometry x="-260" y="20" width="100" height="40" as="geometry" />
        </mxCell>
        <mxCell id="8RJg4G3EmbTGDTWV4F5U-16" value="재고량" style="ellipse;whiteSpace=wrap;html=1;align=center;" vertex="1" parent="1">
          <mxGeometry x="-260" y="60" width="100" height="40" as="geometry" />
        </mxCell>
        <mxCell id="8RJg4G3EmbTGDTWV4F5U-17" value="단가" style="ellipse;whiteSpace=wrap;html=1;align=center;" vertex="1" parent="1">
          <mxGeometry x="-260" y="100" width="100" height="40" as="geometry" />
        </mxCell>
        <mxCell id="8RJg4G3EmbTGDTWV4F5U-20" value="" style="endArrow=none;html=1;rounded=0;exitX=1;exitY=0.5;exitDx=0;exitDy=0;entryX=0;entryY=0.5;entryDx=0;entryDy=0;" edge="1" parent="1" source="8RJg4G3EmbTGDTWV4F5U-2" target="8RJg4G3EmbTGDTWV4F5U-14">
          <mxGeometry relative="1" as="geometry">
            <mxPoint x="-413" y="-0.4200000000000017" as="sourcePoint" />
            <mxPoint x="-253" y="-0.4200000000000017" as="targetPoint" />
          </mxGeometry>
        </mxCell>
        <mxCell id="8RJg4G3EmbTGDTWV4F5U-21" value="" style="endArrow=none;html=1;rounded=0;exitX=1;exitY=0.5;exitDx=0;exitDy=0;entryX=0.042;entryY=0.667;entryDx=0;entryDy=0;entryPerimeter=0;" edge="1" parent="1" source="8RJg4G3EmbTGDTWV4F5U-2" target="8RJg4G3EmbTGDTWV4F5U-15">
          <mxGeometry relative="1" as="geometry">
            <mxPoint x="-280" y="60" as="sourcePoint" />
            <mxPoint x="-260" y="10" as="targetPoint" />
          </mxGeometry>
        </mxCell>
        <mxCell id="8RJg4G3EmbTGDTWV4F5U-23" value="" style="endArrow=none;html=1;rounded=0;exitX=1;exitY=0.5;exitDx=0;exitDy=0;entryX=0.025;entryY=0.375;entryDx=0;entryDy=0;entryPerimeter=0;" edge="1" parent="1" source="8RJg4G3EmbTGDTWV4F5U-2" target="8RJg4G3EmbTGDTWV4F5U-16">
          <mxGeometry relative="1" as="geometry">
            <mxPoint x="-270" y="60" as="sourcePoint" />
            <mxPoint x="-246" y="57" as="targetPoint" />
          </mxGeometry>
        </mxCell>
        <mxCell id="8RJg4G3EmbTGDTWV4F5U-24" value="" style="endArrow=none;html=1;rounded=0;exitX=1;exitY=0.5;exitDx=0;exitDy=0;entryX=-0.008;entryY=0.375;entryDx=0;entryDy=0;entryPerimeter=0;" edge="1" parent="1" source="8RJg4G3EmbTGDTWV4F5U-2" target="8RJg4G3EmbTGDTWV4F5U-17">
          <mxGeometry relative="1" as="geometry">
            <mxPoint x="-270" y="70" as="sourcePoint" />
            <mxPoint x="-247" y="85" as="targetPoint" />
          </mxGeometry>
        </mxCell>
        <mxCell id="8RJg4G3EmbTGDTWV4F5U-25" value="" style="endArrow=none;html=1;rounded=0;entryX=0;entryY=0.5;entryDx=0;entryDy=0;exitX=1;exitY=0.5;exitDx=0;exitDy=0;" edge="1" parent="1" source="8RJg4G3EmbTGDTWV4F5U-5" target="8RJg4G3EmbTGDTWV4F5U-1">
          <mxGeometry relative="1" as="geometry">
            <mxPoint x="-770" y="-0.4200000000000017" as="sourcePoint" />
            <mxPoint x="-610" y="-0.4200000000000017" as="targetPoint" />
          </mxGeometry>
        </mxCell>
        <mxCell id="8RJg4G3EmbTGDTWV4F5U-26" value="" style="endArrow=none;html=1;rounded=0;entryX=0;entryY=0.5;entryDx=0;entryDy=0;exitX=1;exitY=0.5;exitDx=0;exitDy=0;" edge="1" parent="1" source="8RJg4G3EmbTGDTWV4F5U-6" target="8RJg4G3EmbTGDTWV4F5U-1">
          <mxGeometry relative="1" as="geometry">
            <mxPoint x="-764" y="-57" as="sourcePoint" />
            <mxPoint x="-740" y="60" as="targetPoint" />
          </mxGeometry>
        </mxCell>
        <mxCell id="8RJg4G3EmbTGDTWV4F5U-27" value="" style="endArrow=none;html=1;rounded=0;entryX=0;entryY=0.5;entryDx=0;entryDy=0;" edge="1" parent="1" target="8RJg4G3EmbTGDTWV4F5U-1">
          <mxGeometry relative="1" as="geometry">
            <mxPoint x="-780" y="10" as="sourcePoint" />
            <mxPoint x="-740" y="70" as="targetPoint" />
          </mxGeometry>
        </mxCell>
        <mxCell id="8RJg4G3EmbTGDTWV4F5U-28" value="" style="endArrow=none;html=1;rounded=0;entryX=0;entryY=0.5;entryDx=0;entryDy=0;exitX=1;exitY=0.5;exitDx=0;exitDy=0;" edge="1" parent="1" source="8RJg4G3EmbTGDTWV4F5U-8" target="8RJg4G3EmbTGDTWV4F5U-1">
          <mxGeometry relative="1" as="geometry">
            <mxPoint x="-770" y="20" as="sourcePoint" />
            <mxPoint x="-740" y="70" as="targetPoint" />
          </mxGeometry>
        </mxCell>
        <mxCell id="8RJg4G3EmbTGDTWV4F5U-29" value="" style="endArrow=none;html=1;rounded=0;entryX=1;entryY=0.5;entryDx=0;entryDy=0;exitX=0;exitY=0.5;exitDx=0;exitDy=0;" edge="1" parent="1" source="8RJg4G3EmbTGDTWV4F5U-1" target="8RJg4G3EmbTGDTWV4F5U-9">
          <mxGeometry relative="1" as="geometry">
            <mxPoint x="-770" y="60" as="sourcePoint" />
            <mxPoint x="-740" y="70" as="targetPoint" />
          </mxGeometry>
        </mxCell>
        <mxCell id="8RJg4G3EmbTGDTWV4F5U-30" value="" style="endArrow=none;html=1;rounded=0;entryX=1;entryY=0.5;entryDx=0;entryDy=0;exitX=0;exitY=0.5;exitDx=0;exitDy=0;" edge="1" parent="1" source="8RJg4G3EmbTGDTWV4F5U-1" target="8RJg4G3EmbTGDTWV4F5U-10">
          <mxGeometry relative="1" as="geometry">
            <mxPoint x="-740" y="70" as="sourcePoint" />
            <mxPoint x="-770" y="100" as="targetPoint" />
          </mxGeometry>
        </mxCell>
        <mxCell id="8RJg4G3EmbTGDTWV4F5U-31" value="" style="endArrow=none;html=1;rounded=0;entryX=0.975;entryY=0.375;entryDx=0;entryDy=0;exitX=0;exitY=0.5;exitDx=0;exitDy=0;entryPerimeter=0;" edge="1" parent="1" source="8RJg4G3EmbTGDTWV4F5U-1" target="8RJg4G3EmbTGDTWV4F5U-11">
          <mxGeometry relative="1" as="geometry">
            <mxPoint x="-740" y="80" as="sourcePoint" />
            <mxPoint x="-770" y="140" as="targetPoint" />
          </mxGeometry>
        </mxCell>
        <mxCell id="8RJg4G3EmbTGDTWV4F5U-32" value="제조업체" style="whiteSpace=wrap;html=1;align=center;" vertex="1" parent="1">
          <mxGeometry x="-380" y="450" width="100" height="40" as="geometry" />
        </mxCell>
        <mxCell id="8RJg4G3EmbTGDTWV4F5U-33" value="게시글" style="whiteSpace=wrap;html=1;align=center;" vertex="1" parent="1">
          <mxGeometry x="-750" y="440" width="100" height="40" as="geometry" />
        </mxCell>
        <mxCell id="8RJg4G3EmbTGDTWV4F5U-34" value="업체코드" style="ellipse;whiteSpace=wrap;html=1;align=center;fontStyle=4;" vertex="1" parent="1">
          <mxGeometry x="-260" y="390" width="100" height="40" as="geometry" />
        </mxCell>
        <mxCell id="8RJg4G3EmbTGDTWV4F5U-36" value="전화번호" style="ellipse;whiteSpace=wrap;html=1;align=center;" vertex="1" parent="1">
          <mxGeometry x="-260" y="470" width="100" height="40" as="geometry" />
        </mxCell>
        <mxCell id="8RJg4G3EmbTGDTWV4F5U-37" value="위치" style="ellipse;whiteSpace=wrap;html=1;align=center;" vertex="1" parent="1">
          <mxGeometry x="-260" y="510" width="100" height="40" as="geometry" />
        </mxCell>
        <mxCell id="8RJg4G3EmbTGDTWV4F5U-38" value="담당자" style="ellipse;whiteSpace=wrap;html=1;align=center;" vertex="1" parent="1">
          <mxGeometry x="-260" y="550" width="100" height="40" as="geometry" />
        </mxCell>
        <mxCell id="8RJg4G3EmbTGDTWV4F5U-39" value="글번호" style="ellipse;whiteSpace=wrap;html=1;align=center;fontStyle=4;" vertex="1" parent="1">
          <mxGeometry x="-880" y="390" width="100" height="40" as="geometry" />
        </mxCell>
        <mxCell id="8RJg4G3EmbTGDTWV4F5U-40" value="글제목" style="ellipse;whiteSpace=wrap;html=1;align=center;" vertex="1" parent="1">
          <mxGeometry x="-880" y="430" width="100" height="40" as="geometry" />
        </mxCell>
        <mxCell id="8RJg4G3EmbTGDTWV4F5U-41" value="글내용" style="ellipse;whiteSpace=wrap;html=1;align=center;" vertex="1" parent="1">
          <mxGeometry x="-880" y="470" width="100" height="40" as="geometry" />
        </mxCell>
        <mxCell id="8RJg4G3EmbTGDTWV4F5U-42" value="작성일자" style="ellipse;whiteSpace=wrap;html=1;align=center;" vertex="1" parent="1">
          <mxGeometry x="-880" y="510" width="100" height="40" as="geometry" />
        </mxCell>
        <mxCell id="8RJg4G3EmbTGDTWV4F5U-44" value="" style="endArrow=none;html=1;rounded=0;entryX=1;entryY=0.5;entryDx=0;entryDy=0;exitX=0;exitY=0.5;exitDx=0;exitDy=0;" edge="1" parent="1" source="8RJg4G3EmbTGDTWV4F5U-33" target="8RJg4G3EmbTGDTWV4F5U-39">
          <mxGeometry relative="1" as="geometry">
            <mxPoint x="-650" y="460" as="sourcePoint" />
            <mxPoint x="-630" y="410" as="targetPoint" />
          </mxGeometry>
        </mxCell>
        <mxCell id="8RJg4G3EmbTGDTWV4F5U-45" value="" style="endArrow=none;html=1;rounded=0;exitX=0;exitY=0.5;exitDx=0;exitDy=0;entryX=1;entryY=0.5;entryDx=0;entryDy=0;" edge="1" parent="1" source="8RJg4G3EmbTGDTWV4F5U-33" target="8RJg4G3EmbTGDTWV4F5U-40">
          <mxGeometry relative="1" as="geometry">
            <mxPoint x="-640" y="470" as="sourcePoint" />
            <mxPoint x="-880" y="450" as="targetPoint" />
          </mxGeometry>
        </mxCell>
        <mxCell id="8RJg4G3EmbTGDTWV4F5U-46" value="" style="endArrow=none;html=1;rounded=0;entryX=1;entryY=0.5;entryDx=0;entryDy=0;exitX=0;exitY=0.5;exitDx=0;exitDy=0;" edge="1" parent="1" source="8RJg4G3EmbTGDTWV4F5U-33" target="8RJg4G3EmbTGDTWV4F5U-41">
          <mxGeometry relative="1" as="geometry">
            <mxPoint x="-650" y="460" as="sourcePoint" />
            <mxPoint x="-620" y="450" as="targetPoint" />
          </mxGeometry>
        </mxCell>
        <mxCell id="8RJg4G3EmbTGDTWV4F5U-47" value="" style="endArrow=none;html=1;rounded=0;entryX=1;entryY=0.5;entryDx=0;entryDy=0;exitX=0;exitY=0.5;exitDx=0;exitDy=0;" edge="1" parent="1" source="8RJg4G3EmbTGDTWV4F5U-33" target="8RJg4G3EmbTGDTWV4F5U-42">
          <mxGeometry relative="1" as="geometry">
            <mxPoint x="-640" y="480" as="sourcePoint" />
            <mxPoint x="-615" y="496" as="targetPoint" />
          </mxGeometry>
        </mxCell>
        <mxCell id="8RJg4G3EmbTGDTWV4F5U-48" value="" style="endArrow=none;html=1;rounded=0;exitX=0;exitY=0.5;exitDx=0;exitDy=0;entryX=1;entryY=0.5;entryDx=0;entryDy=0;" edge="1" parent="1" source="8RJg4G3EmbTGDTWV4F5U-34" target="8RJg4G3EmbTGDTWV4F5U-32">
          <mxGeometry relative="1" as="geometry">
            <mxPoint x="30" y="330" as="sourcePoint" />
            <mxPoint x="-130" y="470" as="targetPoint" />
          </mxGeometry>
        </mxCell>
        <mxCell id="8RJg4G3EmbTGDTWV4F5U-49" value="" style="endArrow=none;html=1;rounded=0;exitX=0;exitY=0.5;exitDx=0;exitDy=0;entryX=1;entryY=0.5;entryDx=0;entryDy=0;" edge="1" parent="1" source="8RJg4G3EmbTGDTWV4F5U-36" target="8RJg4G3EmbTGDTWV4F5U-32">
          <mxGeometry relative="1" as="geometry">
            <mxPoint x="-150" y="420" as="sourcePoint" />
            <mxPoint x="-130" y="470" as="targetPoint" />
          </mxGeometry>
        </mxCell>
        <mxCell id="8RJg4G3EmbTGDTWV4F5U-50" value="" style="endArrow=none;html=1;rounded=0;exitX=1;exitY=0.5;exitDx=0;exitDy=0;entryX=-0.002;entryY=0.646;entryDx=0;entryDy=0;entryPerimeter=0;" edge="1" parent="1" source="8RJg4G3EmbTGDTWV4F5U-32" target="8RJg4G3EmbTGDTWV4F5U-37">
          <mxGeometry relative="1" as="geometry">
            <mxPoint x="-130" y="470" as="sourcePoint" />
            <mxPoint x="-120" y="490" as="targetPoint" />
          </mxGeometry>
        </mxCell>
        <mxCell id="8RJg4G3EmbTGDTWV4F5U-51" value="" style="endArrow=none;html=1;rounded=0;exitX=1;exitY=0.5;exitDx=0;exitDy=0;entryX=0;entryY=0.5;entryDx=0;entryDy=0;" edge="1" parent="1" source="8RJg4G3EmbTGDTWV4F5U-32" target="8RJg4G3EmbTGDTWV4F5U-38">
          <mxGeometry relative="1" as="geometry">
            <mxPoint x="-130" y="470" as="sourcePoint" />
            <mxPoint x="-150" y="500" as="targetPoint" />
          </mxGeometry>
        </mxCell>
        <mxCell id="8RJg4G3EmbTGDTWV4F5U-53" value="제조업체명" style="ellipse;whiteSpace=wrap;html=1;align=center;" vertex="1" parent="1">
          <mxGeometry x="-260" y="430" width="100" height="40" as="geometry" />
        </mxCell>
        <mxCell id="8RJg4G3EmbTGDTWV4F5U-54" value="" style="endArrow=none;html=1;rounded=0;exitX=0;exitY=0.5;exitDx=0;exitDy=0;entryX=1;entryY=0.5;entryDx=0;entryDy=0;" edge="1" parent="1" source="8RJg4G3EmbTGDTWV4F5U-53" target="8RJg4G3EmbTGDTWV4F5U-32">
          <mxGeometry relative="1" as="geometry">
            <mxPoint x="-150" y="420" as="sourcePoint" />
            <mxPoint x="-130" y="470" as="targetPoint" />
          </mxGeometry>
        </mxCell>
        <mxCell id="8RJg4G3EmbTGDTWV4F5U-56" value="" style="endArrow=none;html=1;rounded=0;exitX=1;exitY=0.5;exitDx=0;exitDy=0;entryX=0;entryY=0.5;entryDx=0;entryDy=0;" edge="1" parent="1" source="8RJg4G3EmbTGDTWV4F5U-55" target="8RJg4G3EmbTGDTWV4F5U-2">
          <mxGeometry relative="1" as="geometry">
            <mxPoint x="-590" y="160" as="sourcePoint" />
            <mxPoint x="-430" y="160" as="targetPoint" />
          </mxGeometry>
        </mxCell>
        <mxCell id="8RJg4G3EmbTGDTWV4F5U-58" value="N" style="resizable=0;html=1;whiteSpace=wrap;align=right;verticalAlign=bottom;" connectable="0" vertex="1" parent="8RJg4G3EmbTGDTWV4F5U-56">
          <mxGeometry x="1" relative="1" as="geometry">
            <mxPoint x="-1" as="offset" />
          </mxGeometry>
        </mxCell>
        <mxCell id="8RJg4G3EmbTGDTWV4F5U-59" value="공급" style="shape=rhombus;perimeter=rhombusPerimeter;whiteSpace=wrap;html=1;align=center;" vertex="1" parent="1">
          <mxGeometry x="-390" y="230" width="120" height="60" as="geometry" />
        </mxCell>
        <mxCell id="8RJg4G3EmbTGDTWV4F5U-61" value="" style="endArrow=none;html=1;rounded=0;exitX=0.5;exitY=1;exitDx=0;exitDy=0;entryX=0.5;entryY=0;entryDx=0;entryDy=0;" edge="1" parent="1" source="8RJg4G3EmbTGDTWV4F5U-59" target="8RJg4G3EmbTGDTWV4F5U-32">
          <mxGeometry relative="1" as="geometry">
            <mxPoint x="-300" y="440" as="sourcePoint" />
            <mxPoint x="-140" y="440" as="targetPoint" />
          </mxGeometry>
        </mxCell>
        <mxCell id="8RJg4G3EmbTGDTWV4F5U-62" value="1" style="resizable=0;html=1;whiteSpace=wrap;align=right;verticalAlign=bottom;" connectable="0" vertex="1" parent="8RJg4G3EmbTGDTWV4F5U-61">
          <mxGeometry x="1" relative="1" as="geometry">
            <mxPoint y="-1" as="offset" />
          </mxGeometry>
        </mxCell>
        <mxCell id="8RJg4G3EmbTGDTWV4F5U-63" value="" style="endArrow=none;html=1;rounded=0;entryX=0.5;entryY=1;entryDx=0;entryDy=0;exitX=0.5;exitY=0;exitDx=0;exitDy=0;" edge="1" parent="1" source="8RJg4G3EmbTGDTWV4F5U-59" target="8RJg4G3EmbTGDTWV4F5U-2">
          <mxGeometry relative="1" as="geometry">
            <mxPoint x="-620" y="360" as="sourcePoint" />
            <mxPoint x="-460" y="360" as="targetPoint" />
          </mxGeometry>
        </mxCell>
        <mxCell id="8RJg4G3EmbTGDTWV4F5U-64" value="N" style="resizable=0;html=1;whiteSpace=wrap;align=right;verticalAlign=bottom;" connectable="0" vertex="1" parent="8RJg4G3EmbTGDTWV4F5U-63">
          <mxGeometry x="1" relative="1" as="geometry">
            <mxPoint y="17" as="offset" />
          </mxGeometry>
        </mxCell>
        <mxCell id="8RJg4G3EmbTGDTWV4F5U-66" value="공급량" style="ellipse;whiteSpace=wrap;html=1;align=center;" vertex="1" parent="1">
          <mxGeometry x="-260" y="200" width="100" height="40" as="geometry" />
        </mxCell>
        <mxCell id="8RJg4G3EmbTGDTWV4F5U-67" value="공급일자" style="ellipse;whiteSpace=wrap;html=1;align=center;" vertex="1" parent="1">
          <mxGeometry x="-260" y="290" width="100" height="40" as="geometry" />
        </mxCell>
        <mxCell id="8RJg4G3EmbTGDTWV4F5U-68" value="" style="endArrow=none;html=1;rounded=0;entryX=0;entryY=0.5;entryDx=0;entryDy=0;exitX=0.686;exitY=0.208;exitDx=0;exitDy=0;exitPerimeter=0;" edge="1" parent="1" source="8RJg4G3EmbTGDTWV4F5U-59" target="8RJg4G3EmbTGDTWV4F5U-66">
          <mxGeometry relative="1" as="geometry">
            <mxPoint x="-620" y="360" as="sourcePoint" />
            <mxPoint x="-460" y="360" as="targetPoint" />
          </mxGeometry>
        </mxCell>
        <mxCell id="8RJg4G3EmbTGDTWV4F5U-69" value="" style="endArrow=none;html=1;rounded=0;entryX=-0.002;entryY=0.313;entryDx=0;entryDy=0;exitX=1;exitY=1;exitDx=0;exitDy=0;entryPerimeter=0;" edge="1" parent="1" source="8RJg4G3EmbTGDTWV4F5U-59" target="8RJg4G3EmbTGDTWV4F5U-67">
          <mxGeometry relative="1" as="geometry">
            <mxPoint x="-298" y="252" as="sourcePoint" />
            <mxPoint x="-250" y="260" as="targetPoint" />
          </mxGeometry>
        </mxCell>
        <mxCell id="8RJg4G3EmbTGDTWV4F5U-70" value="" style="endArrow=none;html=1;rounded=0;exitX=1;exitY=0.5;exitDx=0;exitDy=0;entryX=0;entryY=0.5;entryDx=0;entryDy=0;" edge="1" parent="1" source="8RJg4G3EmbTGDTWV4F5U-1" target="8RJg4G3EmbTGDTWV4F5U-55">
          <mxGeometry relative="1" as="geometry">
            <mxPoint x="-650" y="50" as="sourcePoint" />
            <mxPoint x="-380" y="50" as="targetPoint" />
          </mxGeometry>
        </mxCell>
        <mxCell id="8RJg4G3EmbTGDTWV4F5U-71" value="M" style="resizable=0;html=1;whiteSpace=wrap;align=left;verticalAlign=bottom;" connectable="0" vertex="1" parent="8RJg4G3EmbTGDTWV4F5U-70">
          <mxGeometry x="-1" relative="1" as="geometry">
            <mxPoint x="1" as="offset" />
          </mxGeometry>
        </mxCell>
        <mxCell id="8RJg4G3EmbTGDTWV4F5U-55" value="주문" style="shape=rhombus;perimeter=rhombusPerimeter;whiteSpace=wrap;html=1;align=center;" vertex="1" parent="1">
          <mxGeometry x="-570" y="20" width="120" height="60" as="geometry" />
        </mxCell>
        <mxCell id="8RJg4G3EmbTGDTWV4F5U-74" value="주문번호" style="ellipse;whiteSpace=wrap;html=1;align=center;fontStyle=4;" vertex="1" parent="1">
          <mxGeometry x="-700" y="-60" width="100" height="40" as="geometry" />
        </mxCell>
        <mxCell id="8RJg4G3EmbTGDTWV4F5U-75" value="주문일지" style="ellipse;whiteSpace=wrap;html=1;align=center;" vertex="1" parent="1">
          <mxGeometry x="-530" y="-90" width="100" height="40" as="geometry" />
        </mxCell>
        <mxCell id="8RJg4G3EmbTGDTWV4F5U-76" value="배송지" style="ellipse;whiteSpace=wrap;html=1;align=center;" vertex="1" parent="1">
          <mxGeometry x="-630" y="-90" width="100" height="40" as="geometry" />
        </mxCell>
        <mxCell id="8RJg4G3EmbTGDTWV4F5U-77" value="주문수량" style="ellipse;whiteSpace=wrap;html=1;align=center;" vertex="1" parent="1">
          <mxGeometry x="-460" y="-60" width="100" height="40" as="geometry" />
        </mxCell>
        <mxCell id="8RJg4G3EmbTGDTWV4F5U-79" value="작성" style="shape=rhombus;perimeter=rhombusPerimeter;whiteSpace=wrap;html=1;align=center;" vertex="1" parent="1">
          <mxGeometry x="-760" y="230" width="120" height="60" as="geometry" />
        </mxCell>
        <mxCell id="8RJg4G3EmbTGDTWV4F5U-80" value="" style="endArrow=none;html=1;rounded=0;exitX=0.5;exitY=0;exitDx=0;exitDy=0;" edge="1" parent="1" source="8RJg4G3EmbTGDTWV4F5U-79" target="8RJg4G3EmbTGDTWV4F5U-1">
          <mxGeometry relative="1" as="geometry">
            <mxPoint x="-560" y="250" as="sourcePoint" />
            <mxPoint x="-400" y="250" as="targetPoint" />
          </mxGeometry>
        </mxCell>
        <mxCell id="8RJg4G3EmbTGDTWV4F5U-81" value="1" style="resizable=0;html=1;whiteSpace=wrap;align=right;verticalAlign=bottom;" connectable="0" vertex="1" parent="8RJg4G3EmbTGDTWV4F5U-80">
          <mxGeometry x="1" relative="1" as="geometry">
            <mxPoint y="18" as="offset" />
          </mxGeometry>
        </mxCell>
        <mxCell id="8RJg4G3EmbTGDTWV4F5U-82" value="" style="endArrow=none;html=1;rounded=0;entryX=0.5;entryY=0;entryDx=0;entryDy=0;exitX=0.5;exitY=1;exitDx=0;exitDy=0;" edge="1" parent="1" source="8RJg4G3EmbTGDTWV4F5U-79" target="8RJg4G3EmbTGDTWV4F5U-33">
          <mxGeometry relative="1" as="geometry">
            <mxPoint x="-560" y="250" as="sourcePoint" />
            <mxPoint x="-400" y="250" as="targetPoint" />
          </mxGeometry>
        </mxCell>
        <mxCell id="8RJg4G3EmbTGDTWV4F5U-83" value="N" style="resizable=0;html=1;whiteSpace=wrap;align=right;verticalAlign=bottom;" connectable="0" vertex="1" parent="8RJg4G3EmbTGDTWV4F5U-82">
          <mxGeometry x="1" relative="1" as="geometry">
            <mxPoint y="-1" as="offset" />
          </mxGeometry>
        </mxCell>
        <mxCell id="8RJg4G3EmbTGDTWV4F5U-84" value="" style="endArrow=none;html=1;rounded=0;exitX=0.557;exitY=1.104;exitDx=0;exitDy=0;exitPerimeter=0;entryX=0;entryY=0;entryDx=0;entryDy=0;" edge="1" parent="1" source="8RJg4G3EmbTGDTWV4F5U-74" target="8RJg4G3EmbTGDTWV4F5U-55">
          <mxGeometry relative="1" as="geometry">
            <mxPoint x="-560" y="160" as="sourcePoint" />
            <mxPoint x="-400" y="160" as="targetPoint" />
          </mxGeometry>
        </mxCell>
        <mxCell id="8RJg4G3EmbTGDTWV4F5U-85" value="" style="endArrow=none;html=1;rounded=0;exitX=0.565;exitY=1;exitDx=0;exitDy=0;exitPerimeter=0;" edge="1" parent="1" source="8RJg4G3EmbTGDTWV4F5U-76">
          <mxGeometry relative="1" as="geometry">
            <mxPoint x="-644" y="-6" as="sourcePoint" />
            <mxPoint x="-530" y="30" as="targetPoint" />
          </mxGeometry>
        </mxCell>
        <mxCell id="8RJg4G3EmbTGDTWV4F5U-86" value="" style="endArrow=none;html=1;rounded=0;exitX=0.5;exitY=1;exitDx=0;exitDy=0;" edge="1" parent="1" source="8RJg4G3EmbTGDTWV4F5U-75">
          <mxGeometry relative="1" as="geometry">
            <mxPoint x="-563" y="-40" as="sourcePoint" />
            <mxPoint x="-490" y="30" as="targetPoint" />
          </mxGeometry>
        </mxCell>
        <mxCell id="8RJg4G3EmbTGDTWV4F5U-87" value="" style="endArrow=none;html=1;rounded=0;exitX=0.5;exitY=1;exitDx=0;exitDy=0;entryX=1;entryY=0;entryDx=0;entryDy=0;" edge="1" parent="1" source="8RJg4G3EmbTGDTWV4F5U-77" target="8RJg4G3EmbTGDTWV4F5U-55">
          <mxGeometry relative="1" as="geometry">
            <mxPoint x="-440" y="-30" as="sourcePoint" />
            <mxPoint x="-450" y="50" as="targetPoint" />
          </mxGeometry>
        </mxCell>
      </root>
    </mxGraphModel>
  </diagram>
</mxfile>
